<svg version="1.1" xmlns="http://www.w3.org/2000/svg" xmlns:xlink="http://www.w3.org/1999/xlink" viewBox="0 0 172 172"><g fill="none" fill-rule="nonzero" stroke="none" stroke-width="1" stroke-linecap="butt" stroke-linejoin="miter" stroke-miterlimit="10" stroke-dasharray="" stroke-dashoffset="0" font-family="none" font-weight="none" font-size="none" text-anchor="none" style="mix-blend-mode: normal"><path d="M0,172v-172h172v172z" fill="none"></path><g id="Layer_1"><g id="_x38_9"><path d="M140.23676,102.68169c0,1.90759 -1.3447,4.25305 -3.03336,5.22249l-32.99269,19.04518l4.12802,2.37657c3.22099,1.87648 4.84723,4.31565 4.84723,6.78632v7.03636c-0.0313,2.43917 -1.62624,4.84723 -4.81612,6.69222l-8.94395,5.22268c-6.44217,3.72146 -16.88716,3.72146 -23.32933,0l-9.03786,-5.22268c-0.40656,-0.25004 -0.81312,-0.50028 -1.18838,-0.75051l-20.01462,11.53964c-0.90684,0.53177 -1.71996,0.53177 -2.28285,0.09391c0.0313,0.06242 0.09391,0.09372 0.12502,0.12502l-10.85154,-6.31715c-0.53158,-0.31265 -0.87573,-0.96945 -0.87573,-1.93889l-0.03111,-9.53814l-0.18782,-73.74114c0,-1.90759 1.3449,-4.25305 3.00225,-5.19119l91.37901,-52.75708c0.84423,-0.50047 1.59475,-0.53158 2.12652,-0.21893l10.88285,6.31715c-0.0313,-0.0313 -0.09372,-0.0313 -0.12502,-0.0313c0.6253,0.28135 1.00075,0.96945 1.00075,1.9702l0.18763,73.74114z" fill="#1abc9c"></path><path d="M113.19754,136.12161v7.03636c-0.0313,2.43936 -1.62624,4.84743 -4.81612,6.69241l-8.94396,5.22268c-6.44217,3.72127 -16.88735,3.72127 -23.32952,0l-9.03767,-5.22268c-3.25249,-1.87629 -4.87873,-4.31565 -4.87873,-6.78613l0.0313,-7.03636c0,2.47048 1.62624,4.94114 4.87854,6.81743l9.00656,5.19138c6.47348,3.75257 16.91865,3.75257 23.32952,0l8.97526,-5.19138c3.18988,-1.84498 4.78482,-4.28435 4.78482,-6.72371z" fill="#1abc9c"></path><path d="M108.32753,129.32757c6.463,3.73142 6.49705,9.78179 0.07605,13.51328l-8.96512,5.20995c-6.421,3.73148 -16.86563,3.73108 -23.32863,-0.00035l-9.02378,-5.20987c-6.463,-3.73142 -6.49706,-9.78089 -0.07606,-13.51236l8.96512,-5.20997c6.421,-3.73147 16.86563,-3.73198 23.32864,-0.00056z" fill="#666666"></path><path d="M96.46651,111.07232l-0.06261,27.05079c0,1.31359 -0.84423,2.59569 -2.53308,3.56514c-1.68866,0.96945 -3.87779,1.46973 -6.06692,1.46973c-2.28285,0.0313 -4.5657,-0.46898 -6.28566,-1.46973c-1.72015,-1.00075 -2.59569,-2.31415 -2.59569,-3.59644l0.06261,-27.05079c0,1.3134 0.87554,2.59569 2.5955,3.59625c1.71996,1.00075 3.9717,1.46992 6.22324,1.46992c2.22043,0 4.44086,-0.46917 6.12952,-1.46992c1.68866,-0.96945 2.53308,-2.25154 2.53308,-3.56495z" fill="#e9e7fc"></path><path d="M93.88614,106.49553c3.42354,1.97659 3.44474,5.18194 0.04344,7.15856c-3.40443,1.97844 -8.9382,1.97665 -12.36174,0.00006c-3.42354,-1.97658 -3.44156,-5.18011 -0.03712,-7.15855c3.4013,-1.97662 8.93188,-1.97665 12.35543,-0.00007z" fill="#2d2c2b"></path><path d="M43.70944,160.85845l-10.85154,-6.31715c-0.53177,-0.31265 -0.87573,-0.96945 -0.87573,-1.93889l-0.0313,-9.53814l10.85174,6.31715l0.0313,9.53814c0,0.96945 0.34395,1.62624 0.87554,1.93889z" fill="#dedffb"></path><path d="M140.24833,102.69125c0,1.90759 -1.3447,4.25305 -3.03336,5.22249l-91.34771,52.72577c-1.65755,0.96945 -3.03336,0.18763 -3.03336,-1.71996l-0.0313,-9.53814l97.41443,-56.2285z" fill="#f3f1fc"></path><g><path d="M139.15387,17.47307c-0.56289,-0.31284 -1.31359,-0.28154 -2.15783,0.21893l-91.37901,52.72577c-1.65736,0.96945 -3.00206,3.2836 -3.00206,5.19119v0.0313l0.21893,73.74115l-10.88304,-6.31715l-0.18763,-73.74115c0,-1.90759 1.3447,-4.25305 3.00225,-5.19119l91.37882,-52.75707c0.84442,-0.50028 1.59494,-0.53158 2.12652,-0.21893z" fill="#666666"></path><path d="M136.9929,17.67686c1.66736,-0.96265 3.02276,-0.19026 3.02819,1.72567l0.18774,73.74292l-97.39527,56.23119l-0.18774,-73.74292c-0.00543,-1.91593 1.33689,-4.24585 3.00423,-5.20849z" fill="#1abc9c"></path></g><g fill="#c9cee2"><path d="M94.07201,125.62842c0,2.41243 -1.69964,5.34571 -3.81055,6.5792c-2.11091,1.20621 -3.81055,0.21936 -3.83799,-2.19307c0,-2.41243 1.69963,-5.34571 3.81055,-6.55193c2.11091,-1.23348 3.81055,-0.24663 3.83799,2.16579z"></path></g><g fill="#ffffff"><path d="M45.32068,80.93413l0.1714,63.10605l92.03561,-53.16364l-0.16682,-63.10872z"></path></g><g fill="#f1c40f"><path d="M81.14194,97.09262c-0.31637,-0.21081 -0.7383,-0.15803 -1.16023,0.10556l-1.84542,1.05467l-0.05278,-12.81335c0,-0.73829 -0.15803,-1.21301 -0.57995,-1.42381c-0.42193,-0.31637 -0.9491,-0.2108 -1.58183,0.15802l-0.63274,0.36915c-0.36914,0.21113 -0.73829,0.47471 -1.05466,0.89664l-0.79108,1.15991l-9.38577,19.24658c-0.31637,0.57995 -0.42193,1.21268 -0.42193,1.79264v0.31636c0,0.7383 0.21081,1.21301 0.63273,1.42381c0.47471,0.2636 0.9491,0.15803 1.58183,-0.15834l8.6478,-5.00908v4.16555c0,0.57995 0.2108,0.9491 0.52717,1.1599c0.36915,0.21112 0.79108,0.15834 1.31825,-0.15803c0.47471,-0.26358 0.89664,-0.73829 1.26579,-1.37102c0.36915,-0.57996 0.57995,-1.21269 0.57995,-1.79265l-0.05278,-4.11309l1.84542,-1.05466c0.42193,-0.26358 0.84386,-0.68552 1.16023,-1.21269c0.31637,-0.52749 0.52717,-1.16023 0.52717,-1.63462c0,-0.57995 -0.2108,-0.9491 -0.52717,-1.10744zM67.95945,104.1058l6.48568,-13.44608l0.05278,9.70213z"></path><path d="M97.85725,74.84073c-1.47627,-1.4766 -3.5856,-1.4766 -6.38012,0.15802c-2.79485,1.58183 -4.90417,4.06031 -6.38044,7.27676c-1.4766,3.11122 -2.16211,6.69681 -2.16211,10.546c0,3.90197 0.7383,6.64403 2.21489,8.06784c1.47628,1.52905 3.63838,1.47628 6.4329,-0.15834c2.74207,-1.58183 4.85139,-4.00753 6.32766,-7.22398c1.4766,-3.11089 2.16179,-6.69681 2.16179,-10.59878c0,-3.84919 -0.73797,-6.53846 -2.21457,-8.06752zM91.58237,96.77626c-1.58183,0.9491 -2.79452,0.89632 -3.63838,-0.15803c-0.89632,-1.05466 -1.37103,-3.05843 -1.37103,-5.90573c0,-2.79484 0.47471,-5.273 1.31825,-7.38233c0.84386,-2.00377 2.05654,-3.42758 3.63838,-4.32389c1.52938,-0.89632 2.68928,-0.84354 3.53314,0.15834c0.9491,1.10713 1.37103,3.05811 1.37103,5.85295c0,2.8473 -0.42193,5.37856 -1.31825,7.43478c-0.84386,2.05655 -2.00377,3.42758 -3.53314,4.3239z"></path><path d="M118.73845,75.36789c-0.31637,-0.2108 -0.7383,-0.15802 -1.21269,0.10557l-1.79296,1.05466l-0.05278,-12.81367c0,-0.68519 -0.21081,-1.15991 -0.63273,-1.42349c-0.36915,-0.26358 -0.94911,-0.15834 -1.58184,0.21081l-0.57995,0.31637c-0.36915,0.21112 -0.7383,0.47471 -1.05467,0.89632c-0.31636,0.36915 -0.63273,0.84386 -0.79108,1.21301l-9.38577,19.19379c-0.26391,0.63273 -0.47471,1.26547 -0.42194,1.84542v0.31637c0,0.73829 0.21081,1.1599 0.63273,1.37103c0.42194,0.26359 0.94911,0.21081 1.52905,-0.15834l8.70058,-5.00909v4.16555c0,0.57995 0.15835,1.00188 0.52717,1.1599c0.31637,0.21112 0.79109,0.15834 1.26579,-0.10524c0.52718,-0.31637 0.94911,-0.73829 1.31826,-1.37103c0.36883,-0.63273 0.52717,-1.21269 0.52717,-1.79296v-4.16555l1.79296,-1.00188c0.47439,-0.31637 0.89632,-0.7383 1.21269,-1.26547c0.31636,-0.52749 0.47439,-1.10744 0.47439,-1.63461c0,-0.5275 -0.15803,-0.89665 -0.47439,-1.10745zM112.04163,68.98745l0.05278,9.64968l-6.59125,3.79673z"></path></g><path d="M137.35973,22.56098v6.19194l-92.03561,53.16364l-0.0313,-6.97376c0,-0.96945 0.84442,-2.40806 1.65755,-2.90834l88.06392,-50.81818c1.03205,-0.62549 2.31415,0.12502 2.34545,1.3447z" fill="#1abc9c"></path><g fill="#ffffff"><path d="M52.76704,73.28525c0.0313,1.43861 -1.00075,3.18988 -2.25174,3.94039c-1.2508,0.71921 -2.28285,0.12502 -2.28285,-1.3134c0,-1.43861 1.00075,-3.22118 2.25174,-3.94039c1.2821,-0.71921 2.28285,-0.12521 2.28285,1.3134z"></path><path d="M60.4602,68.84458c0,1.43842 -1.00075,3.22099 -2.28304,3.94039c-1.25079,0.71921 -2.25154,0.12502 -2.28285,-1.31359c0,-1.43842 1.03205,-3.18969 2.28285,-3.9402c1.25099,-0.7194 2.28304,-0.12521 2.28304,1.3134z"></path><path d="M68.15317,64.40391c0,1.43842 -1.03186,3.22099 -2.28285,3.9402c-1.25099,0.7194 -2.28285,0.12521 -2.28285,-1.3134c0,-1.43861 1.00056,-3.18988 2.28285,-3.94039c1.25099,-0.71921 2.28285,-0.12502 2.28285,1.31359z"></path></g></g></g></g></svg>