<svg width="24" height="24" viewBox="0 0 24 24" fill="none" xmlns="http://www.w3.org/2000/svg">
<path d="M14 3L2 5V19L14 21V19H21C21.552 19 22 18.552 22 18V6C22 5.448 21.552 5 21 5H14V3ZM12 5.36133V18.6387L4 17.3066V6.69336L12 5.36133ZM14 7H20V9H14V7ZM4.5 8.5L5.79883 15.5H7.0918L7.93945 11.7578C7.98045 11.5508 8.0123 11.2896 8.0293 10.9746H8.04688C8.05487 11.2626 8.07814 11.5238 8.11914 11.7578L8.94922 15.5H10.1914L11.5 8.5H10.1348L9.68359 11.7227C9.65059 11.9927 9.62519 12.2539 9.61719 12.5059H9.60156C9.57756 12.1819 9.55253 11.9288 9.51953 11.7578L8.9668 8.5H7.20117L6.60742 11.7676C6.54942 12.0656 6.51581 12.3449 6.50781 12.5879H6.48242C6.47442 12.2549 6.45097 11.9832 6.41797 11.7852L5.95117 8.5H4.5ZM14 11H20V13H14V11ZM14 15H20V17H14V15Z" fill="#0013BC"/>
</svg>
